<svg width="1584" height="396" viewBox="0 0 1584 396" fill="none" xmlns="http://www.w3.org/2000/svg">
<rect width="1584" height="396" fill="#F5F5F5"/>
<g id="Awesome banner" clip-path="url(#clip0_0_1)">
<rect width="1584" height="396" fill="url(#paint0_linear_0_1)"/>
<ellipse id="Ellipse 2" cx="323" cy="64" rx="285" ry="288" fill="url(#paint1_linear_0_1)" fill-opacity="0.1"/>
<g id="copyright">
<path d="M75.95 334.52L72.30 334.52L72.30 311.16L77.20 311.16L83.70 330.04Q83.60 329.02 83.50 327.62Q83.41 326.23 83.33 324.79Q83.25 323.35 83.25 322.23L83.25 311.16L86.90 311.16L86.90 334.52L82 334.52L75.57 315.64Q75.63 316.57 75.73 317.88Q75.82 319.19 75.89 320.57Q75.95 321.94 75.95 323.10L75.95 334.52M98.80 334.84Q96.46 334.84 94.67 333.96Q92.88 333.08 91.89 331.53Q90.90 329.98 90.90 327.93Q90.90 325.78 92.13 324.18Q93.36 322.58 95.34 322.17L95.34 322.10Q93.65 321.75 92.61 320.38Q91.57 319 91.57 317.11Q91.57 315.26 92.48 313.85Q93.39 312.44 95.02 311.64Q96.66 310.84 98.80 310.84Q100.94 310.84 102.59 311.64Q104.24 312.44 105.15 313.85Q106.06 315.26 106.06 317.11Q106.06 319 105.01 320.38Q103.95 321.75 102.26 322.10L102.26 322.17Q104.24 322.58 105.47 324.18Q106.70 325.78 106.70 327.93Q106.70 329.98 105.71 331.53Q104.72 333.08 102.93 333.96Q101.14 334.84 98.80 334.84M98.80 320.73Q100.30 320.73 101.23 319.82Q102.16 318.90 102.16 317.46Q102.16 315.99 101.23 315.08Q100.30 314.17 98.80 314.17Q97.30 314.17 96.37 315.08Q95.44 315.99 95.44 317.46Q95.44 318.90 96.37 319.82Q97.30 320.73 98.80 320.73M98.80 331.45Q100.56 331.45 101.68 330.42Q102.80 329.40 102.80 327.74Q102.80 326.04 101.68 325Q100.56 323.96 98.80 323.96Q97.04 323.96 95.92 325Q94.80 326.04 94.80 327.74Q94.80 329.40 95.92 330.42Q97.04 331.45 98.80 331.45M114.35 334.52L110.70 334.52L110.70 311.16L115.60 311.16L122.10 330.04Q122 329.02 121.90 327.62Q121.81 326.23 121.73 324.79Q121.65 323.35 121.65 322.23L121.65 311.16L125.30 311.16L125.30 334.52L120.40 334.52L113.97 315.64Q114.03 316.57 114.13 317.88Q114.22 319.19 114.29 320.57Q114.35 321.94 114.35 323.10" fill="white" fill-opacity="0.9"/>
<path d="M161.48 325.24L151.24 325.24L151.24 322.68L161.48 322.68" fill="white" fill-opacity="0.9"/>
<path d="M195.02 334.84Q191.82 334.84 189.96 333.05Q188.11 331.26 188.11 328.12L188.11 317.56Q188.11 314.42 189.96 312.63Q191.82 310.84 195.02 310.84Q198.15 310.84 200.01 312.65Q201.87 314.46 201.87 317.56L198.99 317.56Q198.99 315.58 197.95 314.50Q196.91 313.43 195.02 313.43Q193.13 313.43 192.06 314.50Q190.99 315.58 190.99 317.56L190.99 328.12Q190.99 330.10 192.06 331.18Q193.13 332.25 195.02 332.25Q196.91 332.25 197.95 331.18Q198.99 330.10 198.99 328.12L201.87 328.12Q201.87 331.22 200.01 333.03Q198.15 334.84 195.02 334.84" fill="white" fill-opacity="0.9"/>
<path d="M213.96 334.84Q210.83 334.84 209 333.02Q207.18 331.19 207.18 327.80L207.18 317.88Q207.18 314.49 209 312.66Q210.83 310.84 213.96 310.84Q217.10 310.84 218.92 312.66Q220.75 314.49 220.75 317.85L220.75 327.80Q220.75 331.19 218.92 333.02Q217.10 334.84 213.96 334.84M213.96 332.25Q215.85 332.25 216.86 331.18Q217.87 330.10 217.87 328.12L217.87 317.56Q217.87 315.58 216.86 314.50Q215.85 313.43 213.96 313.43Q212.11 313.43 211.08 314.50Q210.06 315.58 210.06 317.56L210.06 328.12Q210.06 330.10 211.08 331.18Q212.11 332.25 213.96 332.25" fill="white" fill-opacity="0.9"/>
<path d="M228.65 334.52L225.87 334.52L225.87 311.16L230.12 311.16L233.10 321.27L236.20 311.16L240.46 311.16L240.46 334.52L237.67 334.52L237.67 323.48Q237.67 321.91 237.72 319.88Q237.77 317.85 237.87 315.77Q237.96 313.69 238.09 312.02L234.31 324.09L231.82 324.09L228.20 312.31Q228.46 314.68 228.55 317.50Q228.65 320.31 228.65 323.48" fill="white" fill-opacity="0.9"/>
<path d="M247.85 334.52L245.07 334.52L245.07 311.16L249.32 311.16L252.30 321.27L255.40 311.16L259.66 311.16L259.66 334.52L256.87 334.52L256.87 323.48Q256.87 321.91 256.92 319.88Q256.97 317.85 257.07 315.77Q257.16 313.69 257.29 312.02L253.51 324.09L251.02 324.09L247.40 312.31Q247.66 314.68 247.75 317.50Q247.85 320.31 247.85 323.48" fill="white" fill-opacity="0.9"/>
<path d="M271.56 334.84Q268.30 334.84 266.57 333.03Q264.84 331.22 264.84 328.12L264.84 311.16L267.72 311.16L267.72 328.12Q267.72 330.04 268.67 331.16Q269.61 332.28 271.56 332.28Q273.48 332.28 274.44 331.16Q275.40 330.04 275.40 328.12L275.40 311.16L278.28 311.16L278.28 328.12Q278.28 331.26 276.57 333.05Q274.86 334.84 271.56 334.84" fill="white" fill-opacity="0.9"/>
<path d="M286.83 334.52L284.04 334.52L284.04 311.16L287.88 311.16L295.02 331.16Q294.95 330.36 294.87 329.19Q294.79 328.02 294.75 326.73Q294.70 325.43 294.70 324.28L294.70 311.16L297.48 311.16L297.48 334.52L293.64 334.52L286.54 314.52Q286.60 315.29 286.67 316.46Q286.73 317.62 286.78 318.92Q286.83 320.22 286.83 321.40" fill="white" fill-opacity="0.9"/>
<path d="M316.20 334.52L303.72 334.52L303.72 331.90L308.49 331.90L308.49 313.78L303.72 313.78L303.72 311.16L316.20 311.16L316.20 313.78L311.43 313.78L311.43 331.90L316.20 331.90" fill="white" fill-opacity="0.9"/>
<path d="M330.60 334.52L327.72 334.52L327.72 313.78L321.32 313.78L321.32 311.16L337 311.16L337 313.78L330.60 313.78" fill="white" fill-opacity="0.9"/>
<path d="M349.80 334.52L346.92 334.52L346.92 325.78L339.88 311.16L342.95 311.16L347.50 320.76Q347.88 321.56 348.11 322.12Q348.33 322.68 348.39 322.94Q348.46 322.68 348.70 322.12Q348.94 321.56 349.32 320.76L353.87 311.16L356.84 311.16L349.80 325.78" fill="white" fill-opacity="0.9"/>
<path d="M382.83 334.52L380.04 334.52L380.04 311.16L383.88 311.16L391.02 331.16Q390.95 330.36 390.87 329.19Q390.79 328.02 390.75 326.73Q390.70 325.43 390.70 324.28L390.70 311.16L393.48 311.16L393.48 334.52L389.64 334.52L382.54 314.52Q382.60 315.29 382.67 316.46Q382.73 317.62 382.78 318.92Q382.83 320.22 382.83 321.40" fill="white" fill-opacity="0.9"/>
<path d="M405.96 334.84Q402.83 334.84 401 333.02Q399.18 331.19 399.18 327.80L399.18 317.88Q399.18 314.49 401 312.66Q402.83 310.84 405.96 310.84Q409.10 310.84 410.92 312.66Q412.75 314.49 412.75 317.85L412.75 327.80Q412.75 331.19 410.92 333.02Q409.10 334.84 405.96 334.84M405.96 332.25Q407.85 332.25 408.86 331.18Q409.87 330.10 409.87 328.12L409.87 317.56Q409.87 315.58 408.86 314.50Q407.85 313.43 405.96 313.43Q404.11 313.43 403.08 314.50Q402.06 315.58 402.06 317.56L402.06 328.12Q402.06 330.10 403.08 331.18Q404.11 332.25 405.96 332.25" fill="white" fill-opacity="0.9"/>
<path d="M424.55 334.52L418.51 334.52L418.51 311.16L424.55 311.16Q426.83 311.16 428.47 312.02Q430.12 312.89 431.03 314.46Q431.95 316.02 431.95 318.17L431.95 327.48Q431.95 329.62 431.03 331.21Q430.12 332.79 428.47 333.66Q426.83 334.52 424.55 334.52M421.39 313.72L421.39 331.96L424.55 331.96Q426.67 331.96 427.87 330.78Q429.07 329.59 429.07 327.48L429.07 318.17Q429.07 316.09 427.87 314.90Q426.67 313.72 424.55 313.72" fill="white" fill-opacity="0.9"/>
<path d="M451.40 334.52L437.96 334.52L437.96 311.16L451.40 311.16L451.40 313.78L440.81 313.78L440.81 321.02L450.28 321.02L450.28 323.58L440.81 323.58L440.81 331.90L451.40 331.90" fill="white" fill-opacity="0.9"/>
<path d="M463.69 334.84Q460.30 334.84 458.28 333.05Q456.27 331.26 456.27 328.12L459.15 328.12Q459.15 330.07 460.39 331.18Q461.64 332.28 463.69 332.28Q465.67 332.28 466.86 331.13Q468.04 329.98 468.04 328.12Q468.04 326.71 467.29 325.67Q466.54 324.63 465.13 324.25L461.58 323.26Q459.37 322.62 458.11 320.97Q456.84 319.32 456.84 317.08Q456.84 315.22 457.67 313.82Q458.51 312.41 460.01 311.62Q461.51 310.84 463.47 310.84Q465.45 310.84 466.97 311.62Q468.49 312.41 469.35 313.80Q470.22 315.19 470.22 317.02L467.34 317.02Q467.34 315.42 466.25 314.41Q465.16 313.40 463.47 313.40Q461.77 313.40 460.71 314.41Q459.66 315.42 459.66 317.02Q459.66 318.30 460.35 319.21Q461.03 320.12 462.28 320.47L465.93 321.50Q468.27 322.14 469.56 323.91Q470.86 325.69 470.86 328.12Q470.86 331.19 468.91 333.02Q466.95 334.84 463.69 334.84" fill="white" fill-opacity="0.9"/>
</g>
<path d="M74.37 197.64L72.21 197.64L72.21 180.12L74.37 180.12L74.37 187.66L76.96 187.66L80.85 180.12L83.20 180.12L78.86 188.57L83.44 197.64L80.97 197.64L76.89 189.55L74.37 189.55" fill="white" fill-opacity="0.7"/>
<path d="M96.28 197.64L86.92 197.64L86.92 195.67L90.50 195.67L90.50 182.09L86.92 182.09L86.92 180.12L96.28 180.12L96.28 182.09L92.70 182.09L92.70 195.67L96.28 195.67" fill="white" fill-opacity="0.7"/>
<path d="M102.21 197.64LNaN 197.64L104.56 180.12L107.46 180.12LNaN 197.64L109.82 197.64L108.66 192.98L103.36 192.98L102.21 197.64M105.14 185.74L103.79 191.16L108.21 191.16L106.86 185.76Q106.48 184.22 106.26 183.19Q106.05 182.16 NaN 181.85Q105.95 182.16 105.74 183.19Q105.52 184.22 105.14 185.74" fill="white" fill-opacity="0.7"/>
<path d="M119.94 197.64L115.41 197.64L115.41 180.12L119.94 180.12Q121.65 180.12 122.88 180.77Q124.12 181.42 124.80 182.59Q125.49 183.77 125.49 185.38L125.49 192.36Q125.49 193.97 124.80 195.16Q124.12 196.34 122.88 196.99Q121.65 197.64 119.94 197.64M117.57 182.04L117.57 195.72L119.94 195.72Q121.53 195.72 122.43 194.83Q123.33 193.94 123.33 192.36L123.33 185.38Q123.33 183.82 122.43 182.93Q121.53 182.04 119.94 182.04" fill="white" fill-opacity="0.7"/>
<path d="M135.16 197.64L129.83 197.64L129.83 180.12L134.80 180.12Q137.20 180.12 138.56 181.32Q139.91 182.52 139.91 184.66Q139.91 186 139.06 187.08Q138.21 188.16 136.84 188.42L136.84 188.50Q137.87 188.62 138.65 189.22Q139.43 189.82 139.88 190.74Q140.32 191.66 140.32 192.77Q140.32 195.02 138.94 196.33Q137.56 197.64 135.16 197.64M131.94 182.06L131.94 187.58L134.78 187.58Q136.17 187.58 136.97 186.84Q137.78 186.10 137.78 184.82Q137.78 183.55 136.98 182.81Q136.19 182.06 134.80 182.06L131.94 182.06M131.94 189.46L131.94 195.70L134.92 195.70Q136.43 195.70 137.31 194.89Q138.18 194.09 138.18 192.70Q138.18 191.26 137.31 190.36Q136.43 189.46 134.92 189.46" fill="white" fill-opacity="0.7"/>
<path d="M160.77 197.64L158.61 197.64L158.61 180.12L160.77 180.12L160.77 187.66L163.36 187.66L167.25 180.12L169.60 180.12L165.26 188.57L169.84 197.64L167.37 197.64L163.29 189.55L160.77 189.55" fill="white" fill-opacity="0.7"/>
<path d="M176.85 197.88Q174.81 197.88 173.61 196.74Q172.41 195.60 172.41 193.75Q172.41 192.53 172.96 191.62Q173.51 190.70 174.50 190.19Q175.48 189.67 176.75 189.67L180.83 189.67L180.83 188.64Q180.83 186.07 178.02 186.07Q176.78 186.07 176.01 186.53Q175.24 186.98 175.19 187.80L173.03 187.80Q173.15 186.24 174.48 185.22Q175.82 184.20 178.02 184.20Q180.42 184.20 181.71 185.35Q182.99 186.50 182.99 188.57L182.99 197.64L180.86 197.64L180.86 195.24L180.81 195.24Q180.62 196.46 179.58 197.17Q178.55 197.88 176.85 197.88M177.38 196.06Q178.96 196.06 179.90 195.29Q180.83 194.52 180.83 193.20L180.83 191.35L176.99 191.35Q175.94 191.35 175.28 191.99Q174.62 192.62 174.62 193.68Q174.62 194.78 175.35 195.42Q176.08 196.06 177.38 196.06" fill="white" fill-opacity="0.7"/>
<path d="M190.05 197.64L187.89 197.64L187.89 184.44L190.05 184.44L190.05 186.96L190.10 186.96Q190.26 185.69 191.18 184.94Q192.09 184.20 193.62 184.20Q195.69 184.20 196.80 185.44Q197.92 186.67 197.92 188.95L197.92 190.08L195.76 190.08L195.76 188.95Q195.76 186.07 192.95 186.07Q191.54 186.07 190.79 186.89Q190.05 187.70 190.05 189.24" fill="white" fill-opacity="0.7"/>
<path d="M203.97 197.64L201.81 197.64L201.81 184.44L203.97 184.44L203.97 186.96L203.99 186.96Q204.16 185.64 205.07 184.92Q205.98 184.20 207.50 184.20Q209.49 184.20 210.66 185.42Q211.84 186.65 211.84 188.76L211.84 197.64L209.68 197.64L209.68 189.14Q209.68 187.63 208.92 186.83Q208.17 186.02 206.87 186.02Q205.53 186.02 204.75 186.86Q203.97 187.70 203.97 189.24" fill="white" fill-opacity="0.7"/>
<path d="M220.05 197.88Q218.01 197.88 216.81 196.74Q215.61 195.60 215.61 193.75Q215.61 192.53 216.16 191.62Q216.71 190.70 217.70 190.19Q218.68 189.67 219.95 189.67L224.03 189.67L224.03 188.64Q224.03 186.07 221.22 186.07Q219.98 186.07 219.21 186.53Q218.44 186.98 218.39 187.80L216.23 187.80Q216.35 186.24 217.68 185.22Q219.02 184.20 221.22 184.20Q223.62 184.20 224.91 185.35Q226.19 186.50 226.19 188.57L226.19 197.64L224.06 197.64L224.06 195.24L224.01 195.24Q223.82 196.46 222.78 197.17Q221.75 197.88 220.05 197.88M220.58 196.06Q222.16 196.06 223.10 195.29Q224.03 194.52 224.03 193.20L224.03 191.35L220.19 191.35Q219.14 191.35 218.48 191.99Q217.82 192.62 217.82 193.68Q217.82 194.78 218.55 195.42Q219.28 196.06 220.58 196.06" fill="white" fill-opacity="0.7"/>
<path d="M240.76 197.64L236.92 197.64Q235.29 197.64 234.30 196.69Q233.32 195.74 233.32 194.16L233.32 186.41L229.53 186.41L229.53 184.44L233.32 184.44L233.32 180.72L235.48 180.72L235.48 184.44L240.88 184.44L240.88 186.41L235.48 186.41L235.48 194.16Q235.48 194.83 235.88 195.25Q236.27 195.67 236.92 195.67L240.76 195.67" fill="white" fill-opacity="0.7"/>
<path d="M248.85 197.88Q246.81 197.88 245.61 196.74Q244.41 195.60 244.41 193.75Q244.41 192.53 244.96 191.62Q245.51 190.70 246.50 190.19Q247.48 189.67 248.75 189.67L252.83 189.67L252.83 188.64Q252.83 186.07 250.02 186.07Q248.78 186.07 248.01 186.53Q247.24 186.98 247.19 187.80L245.03 187.80Q245.15 186.24 246.48 185.22Q247.82 184.20 250.02 184.20Q252.42 184.20 253.71 185.35Q254.99 186.50 254.99 188.57L254.99 197.64L252.86 197.64L252.86 195.24L252.81 195.24Q252.62 196.46 251.58 197.17Q250.55 197.88 248.85 197.88M249.38 196.06Q250.96 196.06 251.90 195.29Q252.83 194.52 252.83 193.20L252.83 191.35L248.99 191.35Q247.94 191.35 247.28 191.99Q246.62 192.62 246.62 193.68Q246.62 194.78 247.35 195.42Q248.08 196.06 249.38 196.06" fill="white" fill-opacity="0.7"/>
<path d="M261.69 197.64L259.53 197.64L259.53 180.12L261.69 180.12L261.69 189.89L264.21 189.89L267.90 184.44L270.38 184.44L266.13 190.73L270.62 197.64L268.10 197.64L264.26 191.76L261.69 191.76" fill="white" fill-opacity="0.7"/>
<path d="M277.65 197.88Q275.61 197.88 274.41 196.74Q273.21 195.60 273.21 193.75Q273.21 192.53 273.76 191.62Q274.31 190.70 275.30 190.19Q276.28 189.67 277.55 189.67L281.63 189.67L281.63 188.64Q281.63 186.07 278.82 186.07Q277.58 186.07 276.81 186.53Q276.04 186.98 275.99 187.80L273.83 187.80Q273.95 186.24 275.28 185.22Q276.62 184.20 278.82 184.20Q281.22 184.20 282.51 185.35Q283.79 186.50 283.79 188.57L283.79 197.64L281.66 197.64L281.66 195.24L281.61 195.24Q281.42 196.46 280.38 197.17Q279.35 197.88 277.65 197.88M278.18 196.06Q279.76 196.06 280.70 195.29Q281.63 194.52 281.63 193.20L281.63 191.35L277.79 191.35Q276.74 191.35 276.08 191.99Q275.42 192.62 275.42 193.68Q275.42 194.78 276.15 195.42Q276.88 196.06 278.18 196.06" fill="white" fill-opacity="0.7"/>
<path d="M307.60 197.83Q305.22 197.83 303.82 196.44Q302.42 195.05 302.42 192.55L302.42 189.53Q302.42 187.01 303.81 185.63Q305.20 184.25 307.60 184.25Q310 184.25 311.39 185.63Q312.78 187.01 312.78 189.53L312.78 192.55Q312.78 195.05 311.38 196.44Q309.98 197.83 307.60 197.83M307.60 195.91Q309.02 195.91 309.82 195.12Q310.62 194.33 310.62 192.79L310.62 189.29Q310.62 187.75 309.82 186.96Q309.02 186.17 307.60 186.17Q306.21 186.17 305.39 186.96Q304.58 187.75 304.58 189.29L304.58 192.79Q304.58 194.33 305.39 195.12Q306.21 195.91 307.60 195.91" fill="white" fill-opacity="0.7"/>
<path d="M319.17 197.64L317.01 197.64L317.01 184.44L319.17 184.44L319.17 186.96L319.19 186.96Q319.36 185.64 320.27 184.92Q321.18 184.20 322.70 184.20Q324.69 184.20 325.86 185.42Q327.04 186.65 327.04 188.76L327.04 197.64L324.88 197.64L324.88 189.14Q324.88 187.63 324.12 186.83Q323.37 186.02 322.07 186.02Q320.73 186.02 319.95 186.86Q319.17 187.70 319.17 189.24" fill="white" fill-opacity="0.7"/>
<path d="M342.40 197.64L338.32 197.64Q336.57 197.64 335.52 196.62Q334.48 195.60 334.48 193.92L334.48 182.09L329.92 182.09L329.92 180.12L336.64 180.12L336.64 193.92Q336.64 194.74 337.10 195.20Q337.55 195.67 338.32 195.67L342.40 195.67" fill="white" fill-opacity="0.7"/>
<path d="M356.92 197.64L345.64 197.64L345.64 195.67L350.32 195.67L350.32 186.41L346.12 186.41L346.12 184.44L352.48 184.44L352.48 195.67L356.92 195.67L356.92 197.64M351.16 182.06Q350.37 182.06 349.91 181.66Q349.46 181.25 349.46 180.55Q349.46 179.83 349.91 179.41Q350.37 178.99 351.16 178.99Q351.95 178.99 352.41 179.41Q352.86 179.83 352.86 180.55Q352.86 181.25 352.41 181.66Q351.95 182.06 351.16 182.06" fill="white" fill-opacity="0.7"/>
<path d="M362.37 197.64L360.21 197.64L360.21 184.44L362.37 184.44L362.37 186.96L362.39 186.96Q362.56 185.64 363.47 184.92Q364.38 184.20 365.90 184.20Q367.89 184.20 369.06 185.42Q370.24 186.65 370.24 188.76L370.24 197.64L368.08 197.64L368.08 189.14Q368.08 187.63 367.32 186.83Q366.57 186.02 365.27 186.02Q363.93 186.02 363.15 186.86Q362.37 187.70 362.37 189.24" fill="white" fill-opacity="0.7"/>
<path d="M379.60 197.88Q377.27 197.88 375.84 196.48Q374.42 195.07 374.42 192.60L374.42 189.48Q374.42 187.01 375.84 185.60Q377.27 184.20 379.60 184.20Q381.16 184.20 382.32 184.82Q383.49 185.45 384.14 186.58Q384.78 187.70 384.78 189.24L384.78 191.59L376.53 191.59L376.53 192.84Q376.53 194.30 377.37 195.16Q378.21 196.01 379.60 196.01Q380.80 196.01 381.58 195.54Q382.36 195.07 382.53 194.28L384.69 194.28Q384.47 195.94 383.08 196.91Q381.69 197.88 379.60 197.88M376.53 189.24L376.53 189.91L382.67 189.91L382.67 189.24Q382.67 187.68 381.87 186.83Q381.06 185.98 379.60 185.98Q378.14 185.98 377.33 186.83Q376.53 187.68 376.53 189.24" fill="white" fill-opacity="0.7"/>
<path d="M405.57 201.96L403.41 201.96L403.41 184.44L405.57 184.44L405.57 186.96L405.59 186.96Q405.76 185.66 406.72 184.93Q407.68 184.20 409.17 184.20Q411.16 184.20 412.34 185.51Q413.51 186.82 413.51 189.10L413.51 192.96Q413.51 195.24 412.34 196.56Q411.16 197.88 409.17 197.88Q407.68 197.88 406.72 197.14Q405.76 196.39 405.59 195.12L405.52 195.12L405.57 198.12L405.57 201.96M408.45 196.01Q409.82 196.01 410.58 195.29Q411.35 194.57 411.35 192.96L411.35 189.12Q411.35 187.49 410.58 186.78Q409.82 186.07 408.45 186.07Q407.13 186.07 406.35 186.91Q405.57 187.75 405.57 189.24L405.57 192.84Q405.57 194.33 406.35 195.17Q407.13 196.01 408.45 196.01" fill="white" fill-opacity="0.7"/>
<path d="M422.80 197.83Q420.42 197.83 419.02 196.44Q417.62 195.05 417.62 192.55L417.62 189.53Q417.62 187.01 419.01 185.63Q420.40 184.25 422.80 184.25Q425.20 184.25 426.59 185.63Q427.98 187.01 427.98 189.53L427.98 192.55Q427.98 195.05 426.58 196.44Q425.18 197.83 422.80 197.83M422.80 195.91Q424.22 195.91 425.02 195.12Q425.82 194.33 425.82 192.79L425.82 189.29Q425.82 187.75 425.02 186.96Q424.22 186.17 422.80 186.17Q421.41 186.17 420.59 186.96Q419.78 187.75 419.78 189.29L419.78 192.79Q419.78 194.33 420.59 195.12Q421.41 195.91 422.80 195.91" fill="white" fill-opacity="0.7"/>
<path d="M434.85 197.64L432.69 197.64L432.69 184.44L434.85 184.44L434.85 186.96L434.90 186.96Q435.06 185.69 435.98 184.94Q436.89 184.20 438.42 184.20Q440.49 184.20 441.60 185.44Q442.72 186.67 442.72 188.95L442.72 190.08L440.56 190.08L440.56 188.95Q440.56 186.07 437.75 186.07Q436.34 186.07 435.59 186.89Q434.85 187.70 434.85 189.24" fill="white" fill-opacity="0.7"/>
<path d="M456.76 197.64L452.92 197.64Q451.29 197.64 450.30 196.69Q449.32 195.74 449.32 194.16L449.32 186.41L445.53 186.41L445.53 184.44L449.32 184.44L449.32 180.72L451.48 180.72L451.48 184.44L456.88 184.44L456.88 186.41L451.48 186.41L451.48 194.16Q451.48 194.83 451.88 195.25Q452.27 195.67 452.92 195.67L456.76 195.67" fill="white" fill-opacity="0.7"/>
<path d="M464.85 197.88Q462.81 197.88 461.61 196.74Q460.41 195.60 460.41 193.75Q460.41 192.53 460.96 191.62Q461.51 190.70 462.50 190.19Q463.48 189.67 464.75 189.67L468.83 189.67L468.83 188.64Q468.83 186.07 466.02 186.07Q464.78 186.07 464.01 186.53Q463.24 186.98 463.19 187.80L461.03 187.80Q461.15 186.24 462.48 185.22Q463.82 184.20 466.02 184.20Q468.42 184.20 469.71 185.35Q470.99 186.50 470.99 188.57L470.99 197.64L468.86 197.64L468.86 195.24L468.81 195.24Q468.62 196.46 467.58 197.17Q466.55 197.88 464.85 197.88M465.38 196.06Q466.96 196.06 467.90 195.29Q468.83 194.52 468.83 193.20L468.83 191.35L464.99 191.35Q463.94 191.35 463.28 191.99Q462.62 192.62 462.62 193.68Q462.62 194.78 463.35 195.42Q464.08 196.06 465.38 196.06" fill="white" fill-opacity="0.7"/>
<path d="M486.40 197.64L482.32 197.64Q480.57 197.64 479.52 196.62Q478.48 195.60 478.48 193.92L478.48 182.09L473.92 182.09L473.92 180.12L480.64 180.12L480.64 193.92Q480.64 194.74 481.10 195.20Q481.55 195.67 482.32 195.67L486.40 195.67" fill="white" fill-opacity="0.7"/>
<path d="M509.32 197.64L507.16 197.64L507.16 188.21L503.32 188.21L503.32 186.24L507.16 186.24L507.16 183.48Q507.16 181.92 508.14 181.02Q509.13 180.12 510.86 180.12L514.72 180.12L514.72 182.09L510.86 182.09Q509.32 182.09 509.32 183.48L509.32 186.24L514.72 186.24L514.72 188.21L509.32 188.21" fill="white" fill-opacity="0.7"/>
<path d="M523.60 197.83Q521.22 197.83 519.82 196.44Q518.42 195.05 518.42 192.55L518.42 189.53Q518.42 187.01 519.81 185.63Q521.20 184.25 523.60 184.25Q526 184.25 527.39 185.63Q528.78 187.01 528.78 189.53L528.78 192.55Q528.78 195.05 527.38 196.44Q525.98 197.83 523.60 197.83M523.60 195.91Q525.02 195.91 525.82 195.12Q526.62 194.33 526.62 192.79L526.62 189.29Q526.62 187.75 525.82 186.96Q525.02 186.17 523.60 186.17Q522.21 186.17 521.39 186.96Q520.58 187.75 520.58 189.29L520.58 192.79Q520.58 194.33 521.39 195.12Q522.21 195.91 523.60 195.91" fill="white" fill-opacity="0.7"/>
<path d="M535.65 197.64L533.49 197.64L533.49 184.44L535.65 184.44L535.65 186.96L535.70 186.96Q535.86 185.69 536.78 184.94Q537.69 184.20 539.22 184.20Q541.29 184.20 542.40 185.44Q543.52 186.67 543.52 188.95L543.52 190.08L541.36 190.08L541.36 188.95Q541.36 186.07 538.55 186.07Q537.14 186.07 536.39 186.89Q535.65 187.70 535.65 189.24" fill="white" fill-opacity="0.7"/>
<path d="M567.33 197.83L566.27 197.83Q564.06 197.83 562.85 196.84Q561.64 195.84 561.64 194.02L563.80 194.02Q563.80 194.93 564.45 195.44Q565.10 195.96 566.27 195.96L567.33 195.96Q568.53 195.96 569.19 195.43Q569.85 194.90 569.85 193.94Q569.85 192.24 568.29 192.02L564.64 191.50Q563.30 191.30 562.55 190.38Q561.81 189.46 561.81 187.94Q561.81 186.22 563 185.23Q564.18 184.25 566.27 184.25L567.33 184.25Q569.25 184.25 570.46 185.20Q571.67 186.14 571.77 187.68L569.58 187.68Q569.54 186.98 568.92 186.53Q568.31 186.07 567.33 186.07L566.27 186.07Q565.17 186.07 564.54 186.58Q563.92 187.08 563.92 187.94Q563.92 189.34 565.19 189.53L568.60 190.01Q571.96 190.49 571.96 193.94Q571.96 195.79 570.75 196.81Q569.54 197.83 567.33 197.83" fill="white" fill-opacity="0.7"/>
<path d="M586.36 197.64L582.52 197.64Q580.89 197.64 579.90 196.69Q578.92 195.74 578.92 194.16L578.92 186.41L575.13 186.41L575.13 184.44L578.92 184.44L578.92 180.72L581.08 180.72L581.08 184.44L586.48 184.44L586.48 186.41L581.08 186.41L581.08 194.16Q581.08 194.83 581.48 195.25Q581.87 195.67 582.52 195.67L586.36 195.67" fill="white" fill-opacity="0.7"/>
<path d="M594.45 197.88Q592.41 197.88 591.21 196.74Q590.01 195.60 590.01 193.75Q590.01 192.53 590.56 191.62Q591.11 190.70 592.10 190.19Q593.08 189.67 594.35 189.67L598.43 189.67L598.43 188.64Q598.43 186.07 595.62 186.07Q594.38 186.07 593.61 186.53Q592.84 186.98 592.79 187.80L590.63 187.80Q590.75 186.24 592.08 185.22Q593.42 184.20 595.62 184.20Q598.02 184.20 599.31 185.35Q600.59 186.50 600.59 188.57L600.59 197.64L598.46 197.64L598.46 195.24L598.41 195.24Q598.22 196.46 597.18 197.17Q596.15 197.88 594.45 197.88M594.98 196.06Q596.56 196.06 597.50 195.29Q598.43 194.52 598.43 193.20L598.43 191.35L594.59 191.35Q593.54 191.35 592.88 191.99Q592.22 192.62 592.22 193.68Q592.22 194.78 592.95 195.42Q593.68 196.06 594.98 196.06" fill="white" fill-opacity="0.7"/>
<path d="M615.16 197.64L611.32 197.64Q609.69 197.64 608.70 196.69Q607.72 195.74 607.72 194.16L607.72 186.41L603.93 186.41L603.93 184.44L607.72 184.44L607.72 180.72L609.88 180.72L609.88 184.44L615.28 184.44L615.28 186.41L609.88 186.41L609.88 194.16Q609.88 194.83 610.28 195.25Q610.67 195.67 611.32 195.67L615.16 195.67" fill="white" fill-opacity="0.7"/>
<path d="M624.40 197.88Q622.07 197.88 620.64 196.48Q619.22 195.07 619.22 192.60L619.22 189.48Q619.22 187.01 620.64 185.60Q622.07 184.20 624.40 184.20Q625.96 184.20 627.12 184.82Q628.29 185.45 628.94 186.58Q629.58 187.70 629.58 189.24L629.58 191.59L621.33 191.59L621.33 192.84Q621.33 194.30 622.17 195.16Q623.01 196.01 624.40 196.01Q625.60 196.01 626.38 195.54Q627.16 195.07 627.33 194.28L629.49 194.28Q629.27 195.94 627.88 196.91Q626.49 197.88 624.40 197.88M621.33 189.24L621.33 189.91L627.47 189.91L627.47 189.24Q627.47 187.68 626.67 186.83Q625.86 185.98 624.40 185.98Q622.94 185.98 622.13 186.83Q621.33 187.68 621.33 189.24" fill="white" fill-opacity="0.7"/>
<path d="M653.56 201.96L649.86 201.96L649.86 199.99L653.58 199.99Q654.71 199.99 655.36 199.36Q656.01 198.72 656.01 197.64L656.01 196.44L656.06 194.28L655.98 194.28Q655.79 195.46 654.86 196.09Q653.92 196.73 652.50 196.73Q650.46 196.73 649.29 195.43Q648.11 194.14 648.11 191.88L648.11 189.10Q648.11 186.84 649.29 185.52Q650.46 184.20 652.50 184.20Q653.92 184.20 654.86 184.87Q655.79 185.54 655.98 186.72L656.03 186.72L656.03 184.44L658.17 184.44L658.17 197.64Q658.17 199.63 656.93 200.80Q655.70 201.96 653.56 201.96M653.15 194.93Q654.50 194.93 655.26 194.09Q656.03 193.25 656.03 191.76L656.03 189.24Q656.03 187.75 655.26 186.91Q654.50 186.07 653.15 186.07Q651.78 186.07 651.03 186.86Q650.27 187.66 650.27 189L650.27 192Q650.27 193.34 651.03 194.14Q651.78 194.93 653.15 194.93" fill="white" fill-opacity="0.7"/>
<path d="M667.60 197.83Q665.22 197.83 663.82 196.44Q662.42 195.05 662.42 192.55L662.42 189.53Q662.42 187.01 663.81 185.63Q665.20 184.25 667.60 184.25Q670 184.25 671.39 185.63Q672.78 187.01 672.78 189.53L672.78 192.55Q672.78 195.05 671.38 196.44Q669.98 197.83 667.60 197.83M667.60 195.91Q669.02 195.91 669.82 195.12Q670.62 194.33 670.62 192.79L670.62 189.29Q670.62 187.75 669.82 186.96Q669.02 186.17 667.60 186.17Q666.21 186.17 665.39 186.96Q664.58 187.75 664.58 189.29L664.58 192.79Q664.58 194.33 665.39 195.12Q666.21 195.91 667.60 195.91" fill="white" fill-opacity="0.7"/>
<path d="M683.42 197.64L680.58 197.64L676.10 184.44L678.42 184.44L681.30 193.32Q681.57 194.11 681.76 194.84Q681.95 195.58 682.05 195.98Q682.17 195.58 682.34 194.84Q682.50 194.11 682.74 193.32L685.62 184.44L687.90 184.44" fill="white" fill-opacity="0.7"/>
<path d="M696.40 197.88Q694.07 197.88 692.64 196.48Q691.22 195.07 691.22 192.60L691.22 189.48Q691.22 187.01 692.64 185.60Q694.07 184.20 696.40 184.20Q697.96 184.20 699.12 184.82Q700.29 185.45 700.94 186.58Q701.58 187.70 701.58 189.24L701.58 191.59L693.33 191.59L693.33 192.84Q693.33 194.30 694.17 195.16Q695.01 196.01 696.40 196.01Q697.60 196.01 698.38 195.54Q699.16 195.07 699.33 194.28L701.49 194.28Q701.27 195.94 699.88 196.91Q698.49 197.88 696.40 197.88M693.33 189.24L693.33 189.91L699.47 189.91L699.47 189.24Q699.47 187.68 698.67 186.83Q697.86 185.98 696.40 185.98Q694.94 185.98 694.13 186.83Q693.33 187.68 693.33 189.24" fill="white" fill-opacity="0.7"/>
<path d="M708.45 197.64L706.29 197.64L706.29 184.44L708.45 184.44L708.45 186.96L708.50 186.96Q708.66 185.69 709.58 184.94Q710.49 184.20 712.02 184.20Q714.09 184.20 715.20 185.44Q716.32 186.67 716.32 188.95L716.32 190.08L714.16 190.08L714.16 188.95Q714.16 186.07 711.35 186.07Q709.94 186.07 709.19 186.89Q708.45 187.70 708.45 189.24" fill="white" fill-opacity="0.7"/>
<path d="M722.37 197.64L720.21 197.64L720.21 184.44L722.37 184.44L722.37 186.96L722.39 186.96Q722.56 185.64 723.47 184.92Q724.38 184.20 725.90 184.20Q727.89 184.20 729.06 185.42Q730.24 186.65 730.24 188.76L730.24 197.64L728.08 197.64L728.08 189.14Q728.08 187.63 727.32 186.83Q726.57 186.02 725.27 186.02Q723.93 186.02 723.15 186.86Q722.37 187.70 722.37 189.24" fill="white" fill-opacity="0.7"/>
<path d="M735.86 197.64L733.84 197.64L733.84 184.44L735.71 184.44L735.71 186.19L735.76 186.19Q735.88 185.30 736.47 184.75Q737.06 184.20 737.97 184.20Q738.83 184.20 739.43 184.70Q740.03 185.21 740.30 186.07L740.32 186.07Q740.49 185.21 741.08 184.70Q741.66 184.20 742.58 184.20Q743.85 184.20 744.60 185.15Q745.36 186.10 745.36 187.61L745.36 197.64L743.34 197.64L743.34 187.58Q743.34 186.79 742.96 186.32Q742.58 185.86 741.90 185.86Q741.26 185.86 740.87 186.31Q740.49 186.77 740.49 187.56L740.49 197.64L738.71 197.64L738.71 187.58Q738.71 186.79 738.33 186.32Q737.94 185.86 737.30 185.86Q736.62 185.86 736.24 186.31Q735.86 186.77 735.86 187.56" fill="white" fill-opacity="0.7"/>
<path d="M754 197.88Q751.67 197.88 750.24 196.48Q748.82 195.07 748.82 192.60L748.82 189.48Q748.82 187.01 750.24 185.60Q751.67 184.20 754 184.20Q755.56 184.20 756.72 184.82Q757.89 185.45 758.54 186.58Q759.18 187.70 759.18 189.24L759.18 191.59L750.93 191.59L750.93 192.84Q750.93 194.30 751.77 195.16Q752.61 196.01 754 196.01Q755.20 196.01 755.98 195.54Q756.76 195.07 756.93 194.28L759.09 194.28Q758.87 195.94 757.48 196.91Q756.09 197.88 754 197.88M750.93 189.24L750.93 189.91L757.07 189.91L757.07 189.24Q757.07 187.68 756.27 186.83Q755.46 185.98 754 185.98Q752.54 185.98 751.73 186.83Q750.93 187.68 750.93 189.24" fill="white" fill-opacity="0.7"/>
<path d="M765.57 197.64L763.41 197.64L763.41 184.44L765.57 184.44L765.57 186.96L765.59 186.96Q765.76 185.64 766.67 184.92Q767.58 184.20 769.10 184.20Q771.09 184.20 772.26 185.42Q773.44 186.65 773.44 188.76L773.44 197.64L771.28 197.64L771.28 189.14Q771.28 187.63 770.52 186.83Q769.77 186.02 768.47 186.02Q767.13 186.02 766.35 186.86Q765.57 187.70 765.57 189.24" fill="white" fill-opacity="0.7"/>
<path d="M787.96 197.64L784.12 197.64Q782.49 197.64 781.50 196.69Q780.52 195.74 780.52 194.16L780.52 186.41L776.73 186.41L776.73 184.44L780.52 184.44L780.52 180.72L782.68 180.72L782.68 184.44L788.08 184.44L788.08 186.41L782.68 186.41L782.68 194.16Q782.68 194.83 783.08 195.25Q783.47 195.67 784.12 195.67L787.96 195.67" fill="white" fill-opacity="0.7"/>
<path d="M810.83 197.88Q808.86 197.88 807.68 196.56Q806.49 195.24 806.49 192.98L806.49 189.12Q806.49 186.84 807.66 185.52Q808.84 184.20 810.83 184.20Q812.32 184.20 813.29 184.94Q814.26 185.69 814.46 186.96L814.48 186.96L814.43 183.96L814.43 180.12L816.59 180.12L816.59 197.64L814.43 197.64L814.43 195.12L814.41 195.12Q814.24 196.42 813.28 197.15Q812.32 197.88 810.83 197.88M811.55 196.01Q812.90 196.01 813.66 195.17Q814.43 194.33 814.43 192.84L814.43 189.24Q814.43 187.75 813.66 186.91Q812.90 186.07 811.55 186.07Q810.18 186.07 809.42 186.78Q808.65 187.49 808.65 189.12L808.65 192.96Q808.65 194.57 809.42 195.29Q810.18 196.01 811.55 196.01" fill="white" fill-opacity="0.7"/>
<path d="M826 197.83Q823.62 197.83 822.22 196.44Q820.82 195.05 820.82 192.55L820.82 189.53Q820.82 187.01 822.21 185.63Q823.60 184.25 826 184.25Q828.40 184.25 829.79 185.63Q831.18 187.01 831.18 189.53L831.18 192.55Q831.18 195.05 829.78 196.44Q828.38 197.83 826 197.83M826 195.91Q827.42 195.91 828.22 195.12Q829.02 194.33 829.02 192.79L829.02 189.29Q829.02 187.75 828.22 186.96Q827.42 186.17 826 186.17Q824.61 186.17 823.79 186.96Q822.98 187.75 822.98 189.29L822.98 192.79Q822.98 194.33 823.79 195.12Q824.61 195.91 826 195.91" fill="white" fill-opacity="0.7"/>
<path d="M840.59 197.88Q838.19 197.88 836.75 196.54Q835.31 195.19 835.31 192.84L835.31 189.24Q835.31 186.89 836.75 185.54Q838.19 184.20 840.59 184.20Q842.87 184.20 844.28 185.42Q845.68 186.65 845.75 188.76L843.59 188.76Q843.52 187.49 842.73 186.80Q841.94 186.12 840.59 186.12Q839.18 186.12 838.32 186.92Q837.47 187.73 837.47 189.22L837.47 192.84Q837.47 194.33 838.32 195.14Q839.18 195.96 840.59 195.96Q841.94 195.96 842.73 195.26Q843.52 194.57 843.59 193.32L845.75 193.32Q845.68 195.43 844.28 196.66Q842.87 197.88 840.59 197.88" fill="white" fill-opacity="0.7"/>
<path d="M854.78 197.88Q852.50 197.88 851.13 196.52Q849.76 195.17 849.76 192.84L849.76 184.44L851.92 184.44L851.92 192.84Q851.92 194.28 852.69 195.13Q853.46 195.98 854.78 195.98Q856.12 195.98 856.90 195.13Q857.68 194.28 857.68 192.84L857.68 184.44L859.84 184.44L859.84 192.84Q859.84 195.17 858.45 196.52Q857.06 197.88 854.78 197.88" fill="white" fill-opacity="0.7"/>
<path d="M865.46 197.64L863.44 197.64L863.44 184.44L865.31 184.44L865.31 186.19L865.36 186.19Q865.48 185.30 866.07 184.75Q866.66 184.20 867.57 184.20Q868.43 184.20 869.03 184.70Q869.63 185.21 869.90 186.07L869.92 186.07Q870.09 185.21 870.68 184.70Q871.26 184.20 872.18 184.20Q873.45 184.20 874.20 185.15Q874.96 186.10 874.96 187.61L874.96 197.64L872.94 197.64L872.94 187.58Q872.94 186.79 872.56 186.32Q872.18 185.86 871.50 185.86Q870.86 185.86 870.47 186.31Q870.09 186.77 870.09 187.56L870.09 197.64L868.31 197.64L868.31 187.58Q868.31 186.79 867.93 186.32Q867.54 185.86 866.90 185.86Q866.22 185.86 865.84 186.31Q865.46 186.77 865.46 187.56" fill="white" fill-opacity="0.7"/>
<path d="M883.60 197.88Q881.27 197.88 879.84 196.48Q878.42 195.07 878.42 192.60L878.42 189.48Q878.42 187.01 879.84 185.60Q881.27 184.20 883.60 184.20Q885.16 184.20 886.32 184.82Q887.49 185.45 888.14 186.58Q888.78 187.70 888.78 189.24L888.78 191.59L880.53 191.59L880.53 192.84Q880.53 194.30 881.37 195.16Q882.21 196.01 883.60 196.01Q884.80 196.01 885.58 195.54Q886.36 195.07 886.53 194.28L888.69 194.28Q888.47 195.94 887.08 196.91Q885.69 197.88 883.60 197.88M880.53 189.24L880.53 189.91L886.67 189.91L886.67 189.24Q886.67 187.68 885.87 186.83Q885.06 185.98 883.60 185.98Q882.14 185.98 881.33 186.83Q880.53 187.68 880.53 189.24" fill="white" fill-opacity="0.7"/>
<path d="M895.17 197.64L893.01 197.64L893.01 184.44L895.17 184.44L895.17 186.96L895.19 186.96Q895.36 185.64 896.27 184.92Q897.18 184.20 898.70 184.20Q900.69 184.20 901.86 185.42Q903.04 186.65 903.04 188.76L903.04 197.64L900.88 197.64L900.88 189.14Q900.88 187.63 900.12 186.83Q899.37 186.02 898.07 186.02Q896.73 186.02 895.95 186.86Q895.17 187.70 895.17 189.24" fill="white" fill-opacity="0.7"/>
<path d="M917.56 197.64L913.72 197.64Q912.09 197.64 911.10 196.69Q910.12 195.74 910.12 194.16L910.12 186.41L906.33 186.41L906.33 184.44L910.12 184.44L910.12 180.72L912.28 180.72L912.28 184.44L917.68 184.44L917.68 186.41L912.28 186.41L912.28 194.16Q912.28 194.83 912.68 195.25Q913.07 195.67 913.72 195.67L917.56 195.67" fill="white" fill-opacity="0.7"/>
<path d="M927.33 197.83L926.27 197.83Q924.06 197.83 922.85 196.84Q921.64 195.84 921.64 194.02L923.80 194.02Q923.80 194.93 924.45 195.44Q925.10 195.96 926.27 195.96L927.33 195.96Q928.53 195.96 929.19 195.43Q929.85 194.90 929.85 193.94Q929.85 192.24 928.29 192.02L924.64 191.50Q923.30 191.30 922.55 190.38Q921.81 189.46 921.81 187.94Q921.81 186.22 923 185.23Q924.18 184.25 926.27 184.25L927.33 184.25Q929.25 184.25 930.46 185.20Q931.67 186.14 931.77 187.68L929.58 187.68Q929.54 186.98 928.92 186.53Q928.31 186.07 927.33 186.07L926.27 186.07Q925.17 186.07 924.54 186.58Q923.92 187.08 923.92 187.94Q923.92 189.34 925.19 189.53L928.60 190.01Q931.96 190.49 931.96 193.94Q931.96 195.79 930.75 196.81Q929.54 197.83 927.33 197.83" fill="white" fill-opacity="0.7"/>
<path d="M941.20 197.88Q940.31 197.88 939.77 197.35Q939.23 196.82 939.23 195.98Q939.23 195.10 939.77 194.54Q940.31 193.99 941.20 193.99Q942.09 193.99 942.63 194.54Q943.17 195.10 943.17 195.98Q943.17 196.82 942.63 197.35Q942.09 197.88 941.20 197.88" fill="white" fill-opacity="0.7"/>
<path d="M76.11 136.06L66.42 136.06L84.56 65.98L97.14 65.98L115.18 136.06L105.49 136.06L101.07 117.82L80.53 117.82L76.11 136.06M87.54 88.92L82.45 109.95L99.15 109.95L94.16 89.02Q92.72 83.26 91.86 79.23Q90.99 75.20 90.80 73.76Q90.61 75.20 89.74 79.23Q88.88 83.26 87.54 88.92M137.55 136.06L128.05 136.06L128.05 65.98L150.80 65.98Q157.52 65.98 162.42 68.57Q167.31 71.16 170 75.82Q172.69 80.48 172.69 86.91Q172.69 93.24 170 97.90Q167.31 102.56 162.37 105.15Q157.42 107.74 150.80 107.74L137.55 107.74L137.55 136.06M137.55 74.43L137.55 99.29L150.80 99.29Q156.37 99.29 159.63 95.88Q162.90 92.48 162.90 86.91Q162.90 81.24 159.63 77.84Q156.37 74.43 150.80 74.43L137.55 74.43M225.10 136.06L186.90 136.06L186.90 127.42L201.20 127.42L201.20 74.62L186.90 74.62L186.90 65.98L225.10 65.98L225.10 74.62L210.80 74.62L210.80 127.42L225.10 127.42L225.10 136.06M263.98 137.02Q253.62 137.02 247.47 131.60Q241.33 126.17 241.33 116.67L250.83 116.67Q250.83 122.24 254.38 125.40Q257.94 128.57 263.98 128.57Q269.74 128.57 273.15 125.36Q276.56 122.14 276.56 116.76Q276.56 112.73 274.35 109.71Q272.14 106.68 268.11 105.63L257.74 102.84Q250.93 100.92 246.94 95.88Q242.96 90.84 242.96 83.93Q242.96 78.27 245.50 74Q248.05 69.72 252.66 67.37Q257.26 65.02 263.31 65.02Q269.46 65.02 274.11 67.37Q278.77 69.72 281.36 73.95Q283.95 78.17 283.95 83.74L274.54 83.74Q274.54 79.13 271.42 76.25Q268.30 73.37 263.31 73.37Q258.32 73.37 255.30 76.25Q252.27 79.13 252.27 83.74Q252.27 87.48 254.29 90.03Q256.30 92.57 259.95 93.63L270.61 96.51Q277.81 98.43 281.84 103.85Q285.87 109.28 285.87 116.76Q285.87 122.91 283.18 127.47Q280.50 132.03 275.55 134.52Q270.61 137.02 263.98 137.02M342.51 136.06L301.71 136.06L301.71 65.98L342.51 65.98L342.51 74.52L311.12 74.52L311.12 95.36L339.15 95.36L339.15 103.61L311.12 103.61L311.12 127.52L342.51 127.52L342.51 136.06M383.60 136.06L374.10 136.06L374.10 74.62L355.09 74.62L355.09 65.98L402.51 65.98L402.51 74.62L383.60 74.62L383.60 136.06M436.40 137.02Q426.51 137.02 421.18 131.55Q415.86 126.08 415.86 116.67L415.86 65.98L425.36 65.98L425.36 116.67Q425.36 122.24 428.10 125.40Q430.83 128.57 436.40 128.57Q441.87 128.57 444.70 125.40Q447.54 122.24 447.54 116.67L447.54 65.98L457.04 65.98L457.04 116.67Q457.04 126.17 451.71 131.60Q446.38 137.02 436.40 137.02M551.98 137.02Q542.29 137.02 536.58 131.60Q530.86 126.17 530.86 116.67L530.86 85.28Q530.86 75.87 536.58 70.44Q542.29 65.02 551.98 65.02Q561.58 65.02 567.30 70.49Q573.01 75.96 573.01 85.28L563.50 85.28Q563.50 79.61 560.43 76.54Q557.36 73.47 551.98 73.47Q546.51 73.47 543.44 76.54Q540.37 79.61 540.37 85.28L540.37 116.67Q540.37 122.43 543.44 125.50Q546.51 128.57 551.98 128.57Q557.36 128.57 560.43 125.50Q563.50 122.43 563.50 116.67L563.50 107.55L549.87 107.55L549.87 99.10L573.01 99.10L573.01 116.67Q573.01 126.08 567.30 131.55Q561.58 137.02 551.98 137.02M609.20 137.02Q599.60 137.02 594.03 131.45Q588.46 125.88 588.46 115.71L588.46 86.24Q588.46 76.16 594.03 70.59Q599.60 65.02 609.20 65.02Q618.80 65.02 624.37 70.54Q629.94 76.06 629.94 86.24L629.94 115.71Q629.94 125.88 624.37 131.45Q618.80 137.02 609.20 137.02M609.20 128.57Q614.58 128.57 617.50 125.50Q620.43 122.43 620.43 116.67L620.43 85.28Q620.43 79.61 617.55 76.54Q614.67 73.47 609.20 73.47Q603.73 73.47 600.85 76.54Q597.97 79.61 597.97 85.28L597.97 116.67Q597.97 122.43 600.90 125.50Q603.82 128.57 609.20 128.57M673.14 136.06L660.37 136.06L642.42 65.98L652.21 65.98L663.82 113.21Q664.98 117.72 665.79 121.90Q666.61 126.08 666.99 128.28Q667.28 126.08 668.19 121.85Q669.10 117.63 670.16 113.12L681.39 65.98L691.18 65.98L673.14 136.06M771.15 136.06L761.65 136.06L761.65 65.98L771.15 65.98L771.15 95.74L780.94 95.74L795.92 65.98L806.29 65.98L789.30 99.68L807.15 136.06L796.40 136.06L780.75 104.09L771.15 104.09L771.15 136.06M858.70 136.06L820.50 136.06L820.50 127.42L834.80 127.42L834.80 74.62L820.50 74.62L820.50 65.98L858.70 65.98L858.70 74.62L844.40 74.62L844.40 127.42L858.70 127.42L858.70 136.06M882.51 136.06L872.82 136.06L890.96 65.98L903.54 65.98L921.58 136.06L911.89 136.06L907.47 117.82L886.93 117.82L882.51 136.06M893.94 88.92L888.85 109.95L905.55 109.95L900.56 89.02Q899.12 83.26 898.26 79.23Q897.39 75.20 897.20 73.76Q897.01 75.20 896.14 79.23Q895.28 83.26 893.94 88.92M953.26 136.06L934.45 136.06L934.45 65.98L953.26 65.98Q960.08 65.98 965.12 68.62Q970.16 71.26 972.94 76.01Q975.73 80.76 975.73 87.20L975.73 114.75Q975.73 121.18 972.94 125.98Q970.16 130.78 965.12 133.42Q960.08 136.06 953.26 136.06M943.95 74.43L943.95 127.61L953.26 127.61Q959.31 127.61 962.77 124.16Q966.22 120.70 966.22 114.75L966.22 87.20Q966.22 81.24 962.77 77.84Q959.31 74.43 953.26 74.43L943.95 74.43M1013.74 136.06L992.14 136.06L992.14 65.98L1012.40 65.98Q1022.10 65.98 1027.71 70.83Q1033.33 75.68 1033.33 84.12Q1033.33 89.60 1029.92 93.87Q1026.51 98.14 1021.14 99.10L1021.14 99.39Q1025.17 99.87 1028.29 102.27Q1031.41 104.67 1033.18 108.36Q1034.96 112.06 1034.96 116.48Q1034.96 125.50 1029.25 130.78Q1023.54 136.06 1013.74 136.06M1001.46 74.33L1001.46 95.55L1012.30 95.55Q1017.68 95.55 1020.75 92.72Q1023.82 89.88 1023.82 84.99Q1023.82 80 1020.75 77.16Q1017.68 74.33 1012.40 74.33L1001.46 74.33M1001.46 103.61L1001.46 127.71L1012.88 127.71Q1018.74 127.71 1022.10 124.59Q1025.46 121.47 1025.46 116.09Q1025.46 110.52 1022.10 107.07Q1018.74 103.61 1012.88 103.61" fill="url(#paint2_linear_0_1)"/>
<g id="Group 1">
<rect id="Rectangle 1" x="26" y="168" width="12" height="184" rx="5" fill="url(#paint3_linear_0_1)" fill-opacity="0.9"/>
</g>
<g id="Group 1_2">
<rect id="Rectangle 2" x="26" y="38" width="12" height="119" rx="5" fill="url(#paint4_linear_0_1)" fill-opacity="0.9"/>
</g>
<ellipse id="Ellipse 1" cx="148.5" cy="573" rx="215.5" ry="214" fill="url(#paint5_linear_0_1)" fill-opacity="0.4"/>
<rect id="Rectangle 3" x="1229" y="48" width="300" height="300" rx="25" fill="#FFFBFB" fill-opacity="0.9"/>
<g id="placeholder-logo"><g transform="translate(1229,48) translate(0.0,60.0) scale(1.2000)"><g fill="#666666">
  <path d="m88.05,27.65c-3.15,4 -3.2,51.2 -0.05,54.35c2.75,2.75 71.7,3.15 74.45,0.45c2.85,-2.9 2.3,-53.85 -0.65,-55.9c-1.95,-1.35 -7.15,-1.55 -36.95,-1.55l-34.7,0l-2.1,2.65zm69.45,3.35c0.65,0 1,8.6 1,23.75l0,23.75l-33,0l-33,0l-0.25,-23c-0.15,-12.6 -0.1,-23.45 0.15,-24.1c0.35,-0.85 8.9,-1.05 32.25,-0.75c17.55,0.2 32.3,0.35 32.85,0.35z"/>
  <path d="m99.15,37.3c-6.85,7.35 4.25,17.35 11.4,10.25c1.35,-1.35 2.45,-3.65 2.45,-5.05c0,-6.45 -9.35,-9.95 -13.85,-5.2z"/>
  <path d="m135,42.5c-0.7,0.85 -5.25,5.15 -10.1,9.6l-8.85,8.1l-3.2,-3.2l-3.15,-3.15l-6.35,6.3c-5.55,5.5 -6.35,6.75 -6.35,10.05l0,3.8l28.5,0l28.5,0l0,-8.6l0,-8.55l-8.15,-7.7c-9.35,-8.85 -9.15,-8.7 -10.85,-6.65zm7.25,15.2c0.95,0.9 1.75,2.9 1.75,4.45c6.35,-5.05 4.75,-7.15 4.9,-11.55c0.95,0 0,0 0,0l-6.65,7.1z"/>
  <path d="m53.65,110.75c0.1,4.8 0.45,8.65 0.75,8.5c0.35,-0.15 1.3,-0.25 2.1,-0.25c1.1,0 1.5,-1.2 1.5,-4.75l0,-4.75l3.25,5c4.9,7.5 6.2,6.75 6.55,-3.75c0.25,-8.15 0.15,-8.75 -1.7,-8.75c-1.65,0 -2.05,0.8 -2.3,4.75l-0.3,4.75l-2.8,-4.75c-4.85,-8.25 -7.25,-6.9 -7.05,4z"/>
  <path d="m91,108.9c0,9.65 0.3,10.1 6.1,10.1c5.8,0 7.15,-2.65 1.65,-3.2l-3.25,-0.3l-0.3,-6.75c-0.25,-5.95 -0.55,-6.75 -2.25,-6.75c-1.75,0 -1.95,0.7 -1.95,6.9z"/>
  <path d="m151,102.45c0,0.25 1,2.15 2.25,4.2c1.2,2.1 2.45,5.8 2.75,8.25c0.65,5.9 4,6.95 4,1.25c0.05,-2.1 1.25,-5.85 2.95,-8.9l2.9,-5.25l-2.5,0c-1.8,0 -2.8,0.85 -3.75,3.1l-1.3,3.05l-1.25,-3.05c-1.1,-2.6 -6.05,-4.8 -6.05,-2.65z"/>
  <path d="m191,107.45c0,9.05 3.4,8.85 4.25,-0.2c0.45,-5 0.35,-5.25 -1.9,-5.25c-2.2,0 -2.35,0.4 -2.35,5.45z"/>
  <path d="m180.8,104.75c-1.3,5.35 0.65,13.6 3.45,14.35c2.3,0.6 2.75,0.4 2.75,-1.2c0,-1.05 -0.45,-1.9 -1,-1.9c-0.55,0 -1,-1.6 -1,-3.5c0,-1.95 0.45,-3.5 1,-3.5c0.55,0 1,-0.7 1,-1.5c0,-0.85 -0.45,-1.5 -1,-1.5c-0.55,0 -1,-0.7 -1,-1.5c0,-2.1 -3.65,-1.9 -4.2,0.25z"/>
  <path d="m71.55,106.55c-2.2,2.25 -2.05,9.7 0.3,11.8c4.5,4.1 10.15,0.75 10.15,-6.1c0,-4.85 -2,-7.25 -6,-7.25c-1.55,0 -3.55,0.7 -4.45,1.55zm6.25,5.8c0.25,3.05 0,3.65 -1.6,3.65c-2.3,0 -3.25,-2.65 -2.05,-5.85c1.25,-3.35 3.3,-2.1 3.65,2.2z"/>
  <path d="m105.75,106.1c-2.5,1.45 -2.45,9.95 0.1,12.25c4.3,3.9 10.15,0.35 10.15,-6.2c0,-6 -5.15,-9.05 -10.25,-6.05zm6.05,6.25c0.25,3.05 0,3.65 -1.6,3.65c-2.3,0 -3.25,-2.65 -2.05,-5.85c1.25,-3.35 3.3,-2.1 3.65,2.2z"/>
  <path d="m119.2,106.2c-3.8,3.8 -0.4,12.55 4.4,11.35c1.9,-0.45 2.45,-0.3 2.15,0.65c-0.25,0.7 -1.55,1.2 -2.85,1.1c-4.05,-0.3 -5.35,0.45 -3.85,2.25c0.85,1.05 2.6,1.45 5.35,1.25l4.1,-0.3l0.3,-8.75l0.3,-8.75l-4.35,0c-2.4,0 -4.9,0.55 -5.55,1.2zm6.6,4.45c0.4,2.85 -2.15,4.85 -3.75,2.95c-0.9,-1.1 -0.9,-2 -0.05,-3.6c1.35,-2.5 3.4,-2.15 3.8,0.65z"/>
  <path d="m133.55,106.55c-2.2,2.25 -2.05,9.7 0.3,11.8c4.5,4.1 10.15,0.75 10.15,-6.1c0,-4.85 -2,-7.25 -6,-7.25c-1.55,0 -3.55,0.7 -4.45,1.55zm6.25,5.8c0.25,3.05 0,3.65 -1.6,3.65c-2.3,0 -3.25,-2.65 -2.05,-5.85c1.25,-3.35 3.3,-2.1 3.65,2.2z"/>
  <path d="m167.65,106.85c-3.9,4.3 -0.75,13.15 4.7,13.15c2.4,0 5.65,-2.75 5.65,-4.85c0,-1.4 -2.65,-1.55 -3.5,-0.15c-0.95,1.55 -4.5,1.15 -4.5,-0.5c0,-1.1 1.1,-1.5 4,-1.5c3.15,0 4,-0.35 4,-1.8c0,-5.3 -6.85,-8.25 -10.35,-4.35z"/>
  <path d="m191,117.5c0,2.15 0.4,2.6 2.25,2.3c1.5,-0.2 2.25,-1 2.25,-2.3c0,-1.3 -0.75,-2.1 -2.25,-2.3c-1.85,-0.3 -2.25,0.15 -2.25,2.3z"/>
 </g></g></g>
</g>
<defs>
<linearGradient id="paint0_linear_0_1" x1="0" y1="198" x2="1584" y2="198" gradientUnits="userSpaceOnUse">
<stop stop-color="#3D052C"/>
<stop offset="1"/>
</linearGradient>
<linearGradient id="paint1_linear_0_1" x1="323" y1="-224" x2="323" y2="352" gradientUnits="userSpaceOnUse">
<stop stop-color="#28F6F2" stop-opacity="0.4"/>
<stop offset="1" stop-color="#17908E" stop-opacity="0.7"/>
</linearGradient>
<linearGradient id="paint2_linear_0_1" x1="148.5" y1="38" x2="148.5" y2="140" gradientUnits="userSpaceOnUse">
<stop stop-color="white"/>
<stop offset="1" stop-color="#999999"/>
</linearGradient>
<linearGradient id="paint3_linear_0_1" x1="38" y1="260" x2="26" y2="260" gradientUnits="userSpaceOnUse">
<stop stop-color="#D9D9D9"/>
<stop offset="1" stop-color="#737373"/>
</linearGradient>
<linearGradient id="paint4_linear_0_1" x1="38" y1="97.5" x2="26" y2="97.5" gradientUnits="userSpaceOnUse">
<stop stop-color="#D9D9D9"/>
<stop offset="1" stop-color="#737373"/>
</linearGradient>
<linearGradient id="paint5_linear_0_1" x1="27.5" y1="434.5" x2="148.5" y2="787" gradientUnits="userSpaceOnUse">
<stop stop-color="#2E21BC"/>
<stop offset="1" stop-color="#150F56"/>
</linearGradient>
<clipPath id="clip0_0_1">
<rect width="1584" height="396" fill="white"/>
</clipPath>
</defs>
</svg>
